<svg width="24" height="24" viewBox="0 0 24 24" fill="none" xmlns="http://www.w3.org/2000/svg">
<path d="M24 12C24 18.6274 18.6274 24 12 24C5.37258 24 0 18.6274 0 12C0 5.37258 5.37258 0 12 0C18.6274 0 24 5.37258 24 12Z" fill="white"/>
<path fill-rule="evenodd" clip-rule="evenodd" d="M12 23C18.0751 23 23 18.0751 23 12C23 5.92487 18.0751 1 12 1C5.92487 1 1 5.92487 1 12C1 18.0751 5.92487 23 12 23ZM12 24C18.6274 24 24 18.6274 24 12C24 5.37258 18.6274 0 12 0C5.37258 0 0 5.37258 0 12C0 18.6274 5.37258 24 12 24Z" fill="#F0F0F0"/>
<path d="M9 12C9 12.2332 9.08354 12.4664 9.26256 12.6505L13.4754 16.9831C13.8215 17.339 14.3943 17.339 14.7404 16.9831C15.0865 16.6271 15.0865 16.038 14.7404 15.6821L11.1601 12L14.7404 8.31794C15.0865 7.96201 15.0865 7.37288 14.7404 7.01695C14.3943 6.66102 13.8215 6.66102 13.4754 7.01695L9.26256 11.3495C9.08354 11.5336 9 11.7668 9 12Z" fill="#263745"/>
</svg>
