<svg width="24" height="24" viewBox="0 0 24 24" fill="none" xmlns="http://www.w3.org/2000/svg">
<circle cx="12" cy="12" r="12" fill="white"/>
<path d="M15 12C15 12.2332 14.9165 12.4664 14.7374 12.6505L10.5246 16.9831C10.1785 17.339 9.60567 17.339 9.25957 16.9831C8.91348 16.6271 8.91348 16.038 9.25957 15.6821L12.8399 12L9.25957 8.31794C8.91348 7.96201 8.91348 7.37288 9.25957 7.01695C9.60567 6.66102 10.1785 6.66102 10.5246 7.01695L14.7374 11.3495C14.9165 11.5336 15 11.7668 15 12Z" fill="#263745"/>
<path fill-rule="evenodd" clip-rule="evenodd" d="M12 23C18.0751 23 23 18.0751 23 12C23 5.92487 18.0751 1 12 1C5.92487 1 1 5.92487 1 12C1 18.0751 5.92487 23 12 23ZM12 24C18.6274 24 24 18.6274 24 12C24 5.37258 18.6274 0 12 0C5.37258 0 0 5.37258 0 12C0 18.6274 5.37258 24 12 24Z" fill="#F0F0F0"/>
</svg>
