<svg width="24" height="24" viewBox="0 0 24 24" fill="none" xmlns="http://www.w3.org/2000/svg">
<path fill-rule="evenodd" clip-rule="evenodd" d="M4.35007 12.8673C4.11139 12.6219 4 12.3109 4 12C4 11.6891 4.11139 11.3781 4.35007 11.1327L9.96718 5.35593C10.4286 4.88136 11.1924 4.88136 11.6539 5.35593C12.1154 5.83051 12.1154 6.61601 11.6539 7.09059L6.88016 12L11.6539 16.9094C12.1154 17.384 12.1154 18.1695 11.6539 18.6441C11.1924 19.1186 10.4286 19.1186 9.96718 18.6441L4.35007 12.8673ZM12.3501 12.8673C12.1114 12.6219 12 12.3109 12 12C12 11.6891 12.1114 11.3781 12.3501 11.1327L17.9672 5.35593C18.4286 4.88136 19.1924 4.88136 19.6539 5.35593C20.1154 5.83051 20.1154 6.61601 19.6539 7.09059L14.8802 12L19.6539 16.9094C20.1154 17.384 20.1154 18.1695 19.6539 18.6441C19.1924 19.1186 18.4286 19.1186 17.9672 18.6441L12.3501 12.8673Z" fill="#86A1B8"/>
</svg>
