<svg width="24" height="24" viewBox="0 0 24 24" fill="none" xmlns="http://www.w3.org/2000/svg">
<path fill-rule="evenodd" clip-rule="evenodd" d="M11.6499 12.8673C11.8886 12.6219 12 12.3109 12 12C12 11.6891 11.8886 11.3781 11.6499 11.1327L6.03282 5.35593C5.57136 4.88136 4.80756 4.88136 4.3461 5.35593C3.88463 5.83051 3.88463 6.61601 4.3461 7.09059L9.11984 12L4.3461 16.9094C3.88464 17.384 3.88464 18.1695 4.3461 18.6441C4.80756 19.1186 5.57136 19.1186 6.03282 18.6441L11.6499 12.8673ZM19.6499 12.8673C19.8886 12.6219 20 12.3109 20 12C20 11.6891 19.8886 11.3781 19.6499 11.1327L14.0328 5.35593C13.5714 4.88136 12.8076 4.88136 12.3461 5.35593C11.8846 5.83051 11.8846 6.61601 12.3461 7.09059L17.1198 12L12.3461 16.9094C11.8846 17.384 11.8846 18.1695 12.3461 18.6441C12.8076 19.1186 13.5714 19.1186 14.0328 18.6441L19.6499 12.8673Z" fill="#86A1B8"/>
</svg>
