<svg width="24" height="24" viewBox="0 0 24 24" fill="none" xmlns="http://www.w3.org/2000/svg">
<path fill-rule="evenodd" clip-rule="evenodd" d="M9 22.75H15C20.43 22.75 22.75 20.43 22.75 15V9C22.75 3.57 20.43 1.25 15 1.25H9C3.57 1.25 1.25 3.57 1.25 9V15C1.25 20.43 3.57 22.75 9 22.75ZM2.75 9C2.75 4.39 4.39 2.75 9 2.75H15C19.61 2.75 21.25 4.39 21.25 9V15C21.25 19.61 19.61 21.25 15 21.25H9C4.39 21.25 2.75 19.61 2.75 15V9ZM12.73 16.06C12.88 16.21 13.07 16.28 13.26 16.28C13.46 16.28 13.65 16.21 13.79 16.06C14.08 15.77 14.08 15.29 13.79 15L10.79 12L13.79 9C14.08 8.71 14.08 8.23 13.79 7.94C13.5 7.65 13.02 7.65 12.73 7.94L9.2 11.47C8.91 11.76 8.91 12.24 9.2 12.53L12.73 16.06Z" fill="#263745"/>
</svg>
