<svg width="24" height="24" viewBox="0 0 24 24" fill="none" xmlns="http://www.w3.org/2000/svg">
<path fill-rule="evenodd" clip-rule="evenodd" d="M16.75 2V3.56C19.45 3.81 20.76 5.42 20.96 7.81C20.99 8.09 20.75 8.34 20.46 8.34H3.54C3.26 8.34 3.02 8.1 3.04 7.81C3.24 5.42 4.55 3.81 7.25 3.56V2C7.25 1.59 7.59 1.25 8 1.25C8.41 1.25 8.75 1.59 8.75 2V3.5H15.25V2C15.25 1.59 15.59 1.25 16 1.25C16.41 1.25 16.75 1.59 16.75 2ZM4 9.84H20C20.55 9.84 21 10.29 21 10.84V17C21 20 19.5 22 16 22H8C4.5 22 3 20 3 17V10.84C3 10.29 3.45 9.84 4 9.84ZM8.88 18.42C9 18.37 9.11 18.3 9.21 18.21C9.39 18.02 9.5 17.76 9.5 17.5C9.5 17.24 9.39 16.98 9.21 16.79C9.11 16.7 9 16.63 8.88 16.58C8.64 16.48 8.36 16.48 8.12 16.58C8 16.63 7.89 16.7 7.79 16.79C7.61 16.98 7.5 17.24 7.5 17.5C7.5 17.76 7.61 18.02 7.79 18.21C7.89 18.3 8 18.37 8.12 18.42C8.24 18.47 8.37 18.5 8.5 18.5C8.63 18.5 8.76 18.47 8.88 18.42ZM9.21 14.71C9.3 14.61 9.37 14.5 9.42 14.38C9.47 14.26 9.5 14.13 9.5 14C9.5 13.87 9.47 13.74 9.42 13.62C9.37 13.5 9.3 13.39 9.21 13.29C9.11 13.2 9 13.13 8.88 13.08C8.64 12.98 8.36 12.98 8.12 13.08C8 13.13 7.89 13.2 7.79 13.29C7.7 13.39 7.63 13.5 7.58 13.62C7.53 13.74 7.5 13.87 7.5 14C7.5 14.13 7.53 14.26 7.58 14.38C7.63 14.5 7.7 14.61 7.79 14.71C7.89 14.8 8 14.87 8.12 14.92C8.24 14.97 8.37 15 8.5 15C8.63 15 8.76 14.97 8.88 14.92C9 14.87 9.11 14.8 9.21 14.71ZM12.38 14.92C12.5 14.87 12.61 14.8 12.71 14.71C12.89 14.52 13 14.26 13 14C13 13.74 12.89 13.48 12.71 13.29C12.61 13.2 12.5 13.13 12.38 13.08C12.14 12.97 11.86 12.97 11.62 13.08C11.5 13.13 11.39 13.2 11.29 13.29C11.11 13.48 11 13.74 11 14C11 14.26 11.11 14.52 11.29 14.71C11.39 14.8 11.5 14.87 11.62 14.92C11.74 14.97 11.87 15 12 15C12.13 15 12.26 14.97 12.38 14.92Z" fill="#4EB833"/>
</svg>
