<svg width="24" height="24" viewBox="0 0 24 24" fill="none" xmlns="http://www.w3.org/2000/svg">
<circle opacity="0.2" cx="12" cy="12" r="12" fill="#4EB833"/>
<path d="M13.1834 11.9986L15.7541 9.42787C16.0782 9.10374 16.0782 8.56724 15.7541 8.2431C15.43 7.91897 14.8935 7.91897 14.5693 8.2431L11.9986 10.8138L9.42787 8.2431C9.10374 7.91897 8.56724 7.91897 8.2431 8.2431C7.91897 8.56724 7.91897 9.10374 8.2431 9.42787L10.8138 11.9986L8.2431 14.5693C7.91897 14.8935 7.91897 15.43 8.2431 15.7541C8.41076 15.9218 8.62312 16 8.83549 16C9.04785 16 9.26022 15.9218 9.42787 15.7541L11.9986 13.1834L14.5693 15.7541C14.737 15.9218 14.9494 16 15.1617 16C15.3741 16 15.5864 15.9218 15.7541 15.7541C16.0782 15.43 16.0782 14.8935 15.7541 14.5693L13.1834 11.9986Z" fill="#4EB833"/>
</svg>
