<svg width="24" height="24" viewBox="0 0 24 24" fill="none" xmlns="http://www.w3.org/2000/svg">
<path fill-rule="evenodd" clip-rule="evenodd" d="M11 19.9V4.1C11 2.6 10.36 2 8.77 2H4.73C3.14 2 2.5 2.6 2.5 4.1V19.9C2.5 21.4 3.14 22 4.73 22H8.77C10.36 22 11 21.4 11 19.9ZM21.5 10.9V4.1C21.5 2.6 20.86 2 19.27 2H15.23C13.64 2 13 2.6 13 4.1V10.9C13 12.4 13.64 13 15.23 13H19.27C20.86 13 21.5 12.4 21.5 10.9ZM21.5 17.1V19.9C21.5 21.4 20.86 22 19.27 22H15.23C13.64 22 13 21.4 13 19.9V17.1C13 15.6 13.64 15 15.23 15H19.27C20.86 15 21.5 15.6 21.5 17.1Z" fill="#4EB833"/>
</svg>
