<svg width="24" height="24" viewBox="0 0 24 24" fill="none" xmlns="http://www.w3.org/2000/svg">
<path fill-rule="evenodd" clip-rule="evenodd" d="M16.0019 5.35658C17.5082 5.44026 19.0052 5.55184 20.5022 5.7006C20.8927 5.7378 21.1716 6.08182 21.1437 6.46304C21.1065 6.82566 20.7997 7.0953 20.4464 7.0953H20.372C15.444 6.60251 10.5347 6.41655 5.66255 6.90005L3.76576 7.08601C3.37524 7.1232 3.04052 6.84426 3.00332 6.46304C2.96613 6.08182 3.24507 5.7378 3.63559 5.7006L5.53238 5.51464C6.39709 5.43096 7.26181 5.37517 8.12652 5.31939H8.12652L8.32178 4.12924C8.47055 3.22734 8.6751 2 10.8415 2H13.2776C15.4487 2 15.657 3.27767 15.7965 4.13308L15.7974 4.13854L16.0019 5.34728V5.35658ZM17.9452 8.0437C18.2613 8.0437 18.5682 8.17387 18.7913 8.40632C19.0052 8.63877 19.126 8.95491 19.1074 9.28963L18.531 18.8201C18.4287 20.2427 18.2985 22 15.0535 22H9.08419C5.83919 22 5.70902 20.2334 5.60674 18.8201L5.03026 9.28034C5.01167 8.95491 5.13254 8.63877 5.34639 8.40632C5.56025 8.17387 5.87638 8.0437 6.19251 8.0437H17.9452ZM10.5161 17.3417H13.6123C13.9935 17.3417 14.3097 17.0256 14.3097 16.6444C14.3097 16.2631 13.9935 15.947 13.6123 15.947H10.5161C10.1349 15.947 9.81873 16.2631 9.81873 16.6444C9.81873 17.0256 10.1349 17.3417 10.5161 17.3417ZM9.74435 13.6225H14.3933C14.7746 13.6225 15.0907 13.3064 15.0907 12.9252C15.0907 12.5439 14.7746 12.2278 14.3933 12.2278H9.74435C9.36313 12.2278 9.047 12.5439 9.047 12.9252C9.047 13.3064 9.36313 13.6225 9.74435 13.6225Z" fill="#E54040"/>
</svg>
