<svg width="24" height="24" viewBox="0 0 24 24" fill="none" xmlns="http://www.w3.org/2000/svg">
<circle cx="12" cy="12" r="12" fill="white"/>
<path fill-rule="evenodd" clip-rule="evenodd" d="M12.8443 7.04072C14.249 5.6355 15.5902 5.6708 16.9596 7.04072C17.6655 7.73979 18.0043 8.41769 17.9973 9.11677C17.9973 9.79466 17.6585 10.4655 16.9596 11.1575L16.1126 12.0119C16.0561 12.0684 15.9855 12.0967 15.9079 12.0967C15.8796 12.0967 15.8514 12.0896 15.8232 12.0826C13.9526 11.5459 12.4561 10.0489 11.9196 8.1776C11.8914 8.07874 11.9196 7.96576 11.9902 7.89514L12.8443 7.04072ZM13.9597 12.4144C14.1502 12.5274 14.3479 12.6263 14.5526 12.7251C14.8282 12.8446 14.908 13.21 14.6956 13.4224L10.7197 17.3998C10.6349 17.4916 10.4585 17.5763 10.3314 17.5975L7.62083 17.9788C7.53613 17.9929 7.45142 18 7.36671 18C6.98554 18 6.6326 17.8658 6.37848 17.6187C6.08201 17.315 5.94789 16.8631 6.01848 16.3829L6.39966 13.6784C6.42083 13.5584 6.50554 13.3818 6.5973 13.2901L10.5666 9.31931C10.7833 9.10258 11.1477 9.18506 11.2773 9.46278C11.3761 9.66049 11.4749 9.85115 11.5879 10.0418C11.6797 10.1972 11.7785 10.3525 11.8632 10.4584C11.9621 10.6101 12.0733 10.7433 12.145 10.8293C12.1501 10.8353 12.155 10.8412 12.1597 10.8468C12.1696 10.8597 12.1791 10.8719 12.1879 10.8834C12.2228 10.9289 12.2486 10.9626 12.2655 10.9739C12.4985 11.2564 12.7597 11.5106 12.9926 11.7083C13.0491 11.7648 13.0985 11.8072 13.1126 11.8142C13.2467 11.9272 13.3879 12.0402 13.5079 12.1179C13.6561 12.2238 13.8044 12.3226 13.9597 12.4144Z" fill="#4EB833"/>
</svg>
