<svg width="24" height="24" viewBox="0 0 24 24" fill="none" xmlns="http://www.w3.org/2000/svg">
<path fill-rule="evenodd" clip-rule="evenodd" d="M13.1258 5.38762C14.9988 3.514 16.787 3.56107 18.6129 5.38762C19.5541 6.31972 20.0058 7.22358 19.9964 8.15569C19.9964 9.05955 19.5446 9.95399 18.6129 10.8767L17.4835 12.0159C17.4082 12.0912 17.3141 12.1289 17.2105 12.1289C17.1729 12.1289 17.1352 12.1195 17.0976 12.1101C14.6035 11.3945 12.6082 9.39849 11.8929 6.90347C11.8552 6.77165 11.8929 6.62101 11.987 6.52686L13.1258 5.38762ZM14.6129 12.5526C14.867 12.7032 15.1305 12.835 15.4035 12.9669L15.4696 12.9954C15.8068 13.1403 15.9045 13.586 15.6451 13.8456L10.2929 19.1997C10.1799 19.3221 9.94464 19.4351 9.77523 19.4633L6.16111 19.9718C6.04817 19.9906 5.93523 20 5.82229 20C5.31405 20 4.84346 19.8211 4.50464 19.4916C4.10934 19.0867 3.93052 18.4842 4.02464 17.8439L4.53287 14.2379C4.56111 14.0778 4.67405 13.8425 4.7964 13.7201L10.1554 8.35914C10.4131 8.10129 10.8475 8.19895 10.9972 8.53141C11.01 8.55985 11.023 8.5884 11.0364 8.61704C11.1682 8.88066 11.2999 9.13487 11.4505 9.38908C11.5729 9.59622 11.7046 9.80335 11.8176 9.94458C11.9494 10.1468 12.0977 10.3244 12.1933 10.439C12.2001 10.4471 12.2066 10.4549 12.2129 10.4624C12.2262 10.4795 12.2387 10.4959 12.2505 10.5113C12.297 10.5719 12.3315 10.6169 12.354 10.6319C12.6646 11.0085 13.0129 11.3474 13.3235 11.6111C13.3988 11.6864 13.4646 11.7429 13.4835 11.7523C13.6623 11.9029 13.8505 12.0536 14.0105 12.1571C14.2082 12.2984 14.4058 12.4302 14.6129 12.5526Z" fill="#4EB833"/>
</svg>
