<svg width="24" height="24" viewBox="0 0 24 24" fill="none" xmlns="http://www.w3.org/2000/svg">
<path d="M20.6 4.09998V6.29998C20.6 7.09998 20.1 8.09998 19.6 8.59998L15.3 12.4C14.7 12.9 14.3 13.9 14.3 14.7V19C14.3 19.6 13.9 20.4 13.4 20.7L12 21.6C10.7 22.4 8.90001 21.5 8.90001 19.9V14.6C8.90001 13.9 8.50001 13 8.10001 12.5L7.63001 12.01C7.32001 11.68 7.26001 11.18 7.51001 10.79L12.63 2.56998C12.81 2.27998 13.13 2.09998 13.48 2.09998H18.6C19.7 2.09998 20.6 2.99998 20.6 4.09998Z" fill="#4EB833"/>
<path d="M10.35 3.62998L6.80002 9.31998C6.46002 9.86998 5.68002 9.94998 5.23002 9.47998L4.30002 8.49998C3.80002 7.99998 3.40002 7.09998 3.40002 6.49998V4.19998C3.40002 2.99998 4.30002 2.09998 5.40002 2.09998H9.50002C10.28 2.09998 10.76 2.95998 10.35 3.62998Z" fill="#4EB833"/>
</svg>
