<svg width="24" height="24" viewBox="0 0 24 24" fill="none" xmlns="http://www.w3.org/2000/svg">
<path d="M8.07362 3.50425C7.90413 2.56046 6.5746 2.00952 5.10405 2.27362C3.99171 2.47343 2.66847 3.72042 2.08996 4.316C1.93828 4.4721 1.9848 4.73178 2.18148 4.82542C2.93113 5.18248 4.60554 5.89108 5.71792 5.69131C7.18842 5.42721 8.24311 4.44799 8.07362 3.50425Z" fill="#4EB833"/>
<path d="M8.4581 16.1548C8.06892 15.0497 8.11669 13.862 8.59267 12.8106C9.07736 11.7398 9.94552 10.9384 11.0372 10.554C11.2591 10.4758 11.4901 10.4169 11.7285 10.3772C11.5603 9.82826 11.4725 9.25365 11.4725 8.67103C11.4725 7.27412 10.5484 6.09338 9.27822 5.70592C9.58517 5.1726 10.2162 4.25123 11.1449 3.74276C11.3076 3.6537 11.3807 3.45877 11.3162 3.28491L10.93 2.24401C10.8479 2.02276 10.5833 1.93167 10.382 2.0562C9.72107 2.46522 8.45205 3.50905 8.24943 5.57424C6.59467 5.63904 5.27287 7.00029 5.27287 8.67095C5.27287 10.0395 4.7942 11.3566 3.91772 12.4077C3.07924 13.4131 2.57483 14.7068 2.57483 16.1184C2.57483 19.3204 5.17064 21.9162 8.37271 21.9162C9.34322 21.9162 10.2578 21.6774 11.0615 21.2559C10.78 20.9024 10.5037 20.501 10.235 20.0537C9.42853 18.7118 8.82361 17.1928 8.4581 16.1548Z" fill="#4EB833"/>
<path d="M19.0165 11.6123C18.422 11.6123 17.8044 11.7634 17.2565 12.0387C17.0463 12.1443 16.8279 12.2263 16.6049 12.2851C16.8674 11.8192 17.4379 10.9609 18.2909 10.4939C18.4355 10.4147 18.5006 10.2413 18.4432 10.0866L18.0996 9.16073C18.0265 8.96354 17.7909 8.88315 17.6122 8.9937C16.996 9.37503 15.7859 10.3773 15.6965 12.3955C15.196 12.3878 14.6967 12.2689 14.2371 12.0382C13.6895 11.7633 13.0721 11.6124 12.4781 11.6124C10.2817 11.6124 8.99202 13.7695 9.68038 15.7245C10.2119 17.234 12.0115 21.9164 14.4147 21.9164C14.6077 21.9164 14.8043 21.8863 15.0047 21.8218C15.3177 21.7212 15.5616 21.4053 15.7473 20.9516C15.933 21.4053 16.1769 21.7213 16.4899 21.8218C16.6902 21.8862 16.8871 21.9164 17.0799 21.9164C19.4833 21.9164 21.2827 17.234 21.8143 15.7245C22.5022 13.7709 21.2145 11.6123 19.0165 11.6123Z" fill="#4EB833"/>
</svg>
