<svg width="24" height="24" viewBox="0 0 24 24" fill="none" xmlns="http://www.w3.org/2000/svg">
<path d="M18.4336 19.6055C16.6992 21.0703 14.4493 22 12 22C8.35548 22 5.15621 19.9922 3.42188 17.0625L4.07117 14.0695L6.94923 13.5352C7.6172 15.6914 9.63279 17.2734 12 17.2734C13.1484 17.2734 14.2149 16.9102 15.0938 16.2656L17.8594 16.6875L18.4336 19.6055Z" fill="#59C36A"/>
<path d="M18.4336 19.6055L17.8594 16.6875L15.0938 16.2656C14.2148 16.9102 13.1484 17.2734 12 17.2734V22C14.4493 22 16.6992 21.0703 18.4336 19.6055Z" fill="#00A66C"/>
<path d="M6.72657 12C6.72657 12.539 6.8086 13.0547 6.94923 13.5352L3.42188 17.0625C2.54297 15.586 2 13.8515 2 12C2 10.1484 2.54297 8.41406 3.42188 6.9375L6.25286 7.42473L6.94923 10.4648C6.8086 10.9453 6.72657 11.4609 6.72657 12Z" fill="#FFDA2D"/>
<path d="M22 12C22 15.0468 20.5899 17.7774 18.4336 19.6055L15.0938 16.2656C15.7734 15.7734 16.3477 15.1172 16.7227 14.3438H12C11.6718 14.3438 11.4141 14.0859 11.4141 13.7578V10.2422C11.4141 9.91402 11.6718 9.65625 12 9.65625H21.25C21.5313 9.65625 21.7774 9.85543 21.8242 10.1367C21.9414 10.7461 22 11.3789 22 12Z" fill="#4086F4"/>
<path d="M16.7227 14.3438C16.3477 15.1172 15.7734 15.7734 15.0938 16.2656L18.4336 19.6055C20.5899 17.7774 22 15.0469 22 12C22 11.3789 21.9414 10.7461 21.8242 10.1367C21.7774 9.85543 21.5312 9.65625 21.25 9.65625H12V14.3438H16.7227Z" fill="#4175DF"/>
<path d="M18.5977 4.79293C18.6094 4.957 18.5391 5.10938 18.4336 5.22653L15.9258 7.72263C15.7266 7.93356 15.3985 7.957 15.1641 7.78122C14.2383 7.08985 13.1484 6.72657 12 6.72657C9.63279 6.72657 7.6172 8.30856 6.94923 10.4649L3.42188 6.93751C5.15621 4.00782 8.35548 2 12 2C14.3321 2 16.6055 2.85938 18.3867 4.35934C18.5157 4.46485 18.586 4.62887 18.5977 4.79293Z" fill="#FF641A"/>
<path d="M15.1641 7.78122C15.3984 7.95704 15.7265 7.93356 15.9257 7.72263L18.4336 5.22653C18.5391 5.10938 18.6094 4.95704 18.5976 4.79293C18.5859 4.62883 18.5156 4.46485 18.3867 4.35934C16.6055 2.85938 14.332 2 12 2V6.72657C13.1484 6.72657 14.2382 7.08985 15.1641 7.78122Z" fill="#F03800"/>
</svg>
