<svg width="24" height="24" viewBox="0 0 24 24" fill="none" xmlns="http://www.w3.org/2000/svg">
<path fill-rule="evenodd" clip-rule="evenodd" d="M20.68 2.23C20.98 1.93 21.47 1.93 21.77 2.23C22.08 2.53 22.08 3.01 21.77 3.31L3.31 21.77C3.16 21.92 2.97 22 2.77 22C2.57 22 2.38 21.92 2.23 21.78C1.93 21.48 1.93 20.99 2.23 20.69L5.16949 17.7489C4.28368 16.9364 3.46604 15.9593 2.75 14.84C1.75 13.27 1.75 10.72 2.75 9.15C3.91 7.33 5.33 5.9 6.91 4.92C8.49 3.96 10.22 3.43 12 3.43C13.9861 3.43 15.9167 4.08044 17.6292 5.28242L20.68 2.23ZM14.2671 8.64642C13.6217 8.20863 12.8419 7.96 12 7.96C9.76 7.96 7.96 9.77 7.96 12C7.96 12.8416 8.2141 13.6211 8.65016 14.2664L9.51435 13.4017C9.27836 12.985 9.14 12.5051 9.14 12C9.14 10.43 10.42 9.14 12 9.14C12.5045 9.14 12.9839 9.27806 13.4004 9.5136L14.2671 8.64642ZM21.27 9.18C20.98 8.72 20.67 8.29 20.35 7.89C19.98 7.42 19.28 7.38 18.86 7.8L15.86 10.8C16.08 11.46 16.12 12.22 15.92 13.01C15.57 14.42 14.43 15.56 13.02 15.91C12.23 16.11 11.47 16.07 10.81 15.85L8.35 18.31C7.85 18.81 8.01 19.69 8.68 19.95C9.75 20.36 10.86 20.57 12 20.57C13.78 20.57 15.51 20.05 17.09 19.08C18.7 18.08 20.15 16.61 21.32 14.74C22.27 13.23 22.22 10.69 21.27 9.18ZM14.86 12C14.86 13.57 13.58 14.86 12 14.86H12C11.94 14.86 11.89 14.86 11.83 14.84L14.84 11.83C14.86 11.89 14.86 11.94 14.86 12V12Z" fill="#86A1B8"/>
</svg>
