<svg width="24" height="24" viewBox="0 0 24 24" fill="none" xmlns="http://www.w3.org/2000/svg">
<path d="M10.984 2.5936C11.4301 1.80213 12.5699 1.80213 13.016 2.5936L15.4396 6.89358C15.606 7.18885 15.8927 7.39711 16.2249 7.46414L21.0634 8.4404C21.954 8.62009 22.3062 9.70406 21.6913 10.3729L18.3507 14.0067C18.1214 14.2562 18.0119 14.5932 18.0508 14.9299L18.6175 19.8332C18.7218 20.7358 17.7997 21.4057 16.9736 21.0276L12.4853 18.9734C12.1772 18.8324 11.8228 18.8324 11.5147 18.9734L7.02641 21.0276C6.2003 21.4057 5.27822 20.7358 5.38253 19.8332L5.94922 14.9299C5.98813 14.5932 5.87865 14.2562 5.64926 14.0067L2.30868 10.3729C1.69381 9.70406 2.04601 8.62009 2.93659 8.4404L7.77506 7.46414C8.10731 7.39711 8.39395 7.18885 8.56038 6.89358L10.984 2.5936Z" fill="#FFBA00"/>
</svg>
