<svg width="24" height="24" viewBox="0 0 24 24" fill="none" xmlns="http://www.w3.org/2000/svg">
<path fill-rule="evenodd" clip-rule="evenodd" d="M8.39001 8.32998V18.49C8.39001 19.11 8.68001 19.7 9.17001 20.07L10.45 21.06C10.88 21.49 11.82 21.72 12.49 21.72H16.39C17.73 21.72 19.08 20.71 19.39 19.47L21.85 11.98C22.1 11.27 22.03 10.57 21.65 10.03C21.25 9.46997 20.57 9.14997 19.78 9.14997H15.67C15.4 9.14997 15.15 9.02998 14.98 8.83998C14.81 8.62998 14.73 8.35998 14.77 8.05998L15.29 4.78997C15.5 3.80997 14.85 2.70998 13.87 2.37998C12.96 2.03998 11.89 2.49998 11.46 3.14998L8.73001 7.20998C8.51001 7.53998 8.39001 7.92998 8.39001 8.32998ZM4.18 6.37997H5.21C6.76 6.37997 7.39 6.97997 7.39 8.45997V18.52C7.39 20 6.76 20.6 5.21 20.6H4.18C2.63 20.6 2 20 2 18.52V8.45997C2 6.97997 2.63 6.37997 4.18 6.37997Z" fill="#86A1B8"/>
</svg>
