<svg width="24" height="24" viewBox="0 0 24 24" fill="none" xmlns="http://www.w3.org/2000/svg">
<circle opacity="0.2" cx="12" cy="12" r="12" fill="#4EB833"/>
<path d="M11.2855 8.7857V15.2143C11.2855 15.6071 10.9641 15.9286 10.5712 15.9286H8.78553C7.69982 15.9286 6.72125 15.4857 6.00696 14.7786C5.33553 14.1 4.89982 13.1786 4.85696 12.1571C4.77125 9.91427 6.72839 8.07141 8.97839 8.07141H10.5712C10.9641 8.07141 11.2855 8.39284 11.2855 8.7857Z" fill="#4EB833"/>
<path d="M19.1429 11.8428C19.2357 14.0928 17.2786 15.9286 15.0286 15.9286H13.4357C13.0429 15.9286 12.7214 15.6071 12.7214 15.2143V8.7857C12.7214 8.39284 13.0429 8.07141 13.4357 8.07141H15.2214C16.3071 8.07141 17.2857 8.51427 18 9.22141C18.6643 9.89998 19.1 10.8214 19.1429 11.8428Z" fill="#4EB833"/>
<path d="M14.8569 12.5358H9.14265C8.84979 12.5358 8.60693 12.2929 8.60693 12.0001C8.60693 11.7072 8.84979 11.4644 9.14265 11.4644H14.8569C15.1498 11.4644 15.3926 11.7072 15.3926 12.0001C15.3926 12.2929 15.1498 12.5358 14.8569 12.5358Z" fill="#ECDF60"/>
</svg>
