<svg width="24" height="24" viewBox="0 0 24 24" fill="none" xmlns="http://www.w3.org/2000/svg">
<path fill-rule="evenodd" clip-rule="evenodd" d="M7.86993 21.09C9.02993 22.2 10.5199 22.76 11.9999 22.76C13.4799 22.76 14.9699 22.2 16.1299 21.09C19.0799 18.25 22.3399 13.73 21.1199 8.34C20.0099 3.44 15.7399 1.25 12.0099 1.25H11.9999C8.26993 1.25 3.99993 3.44 2.88993 8.33C1.65993 13.72 4.91993 18.25 7.86993 21.09ZM4.35993 8.66C5.34993 4.3 9.08993 2.75 11.9999 2.75C14.9099 2.75 18.6599 4.3 19.6599 8.66C20.7199 13.37 17.7599 17.43 15.0899 20C13.3599 21.67 10.6499 21.67 8.91993 20C6.23993 17.43 3.27993 13.37 4.35993 8.66ZM8.12994 10.3C8.12994 12.44 9.86994 14.17 11.9999 14.17C14.1299 14.17 15.8699 12.45 15.8699 10.31C15.8699 8.17 14.1299 6.44 11.9999 6.44C9.86994 6.44 8.12994 8.16 8.12994 10.3ZM9.62994 10.31C9.62994 9 10.6999 7.94 11.9999 7.94C13.2999 7.94 14.3699 9 14.3699 10.31C14.3699 11.62 13.3099 12.68 11.9999 12.68C10.6899 12.68 9.62994 11.62 9.62994 10.31Z" fill="#86A1B8"/>
</svg>
