<svg width="24" height="24" viewBox="0 0 24 24" fill="none" xmlns="http://www.w3.org/2000/svg">
<path fill-rule="evenodd" clip-rule="evenodd" d="M12 1.75C15.54 1.75 19.57 3.83 20.62 8.45C21.79 13.61 18.63 17.97 15.77 20.72C14.72 21.74 13.36 22.25 12 22.25C10.64 22.25 9.27997 21.74 8.21997 20.72C5.35997 17.97 2.19997 13.6 3.36997 8.44C4.41997 3.82 8.45997 1.75 11.99 1.75H12ZM15.15 10.31C15.15 12.0497 13.7397 13.46 12 13.46C10.2603 13.46 8.84998 12.0497 8.84998 10.31C8.84998 8.57031 10.2603 7.16 12 7.16C13.7397 7.16 15.15 8.57031 15.15 10.31Z" fill="#4EB833"/>
</svg>
