<svg width="24" height="24" viewBox="0 0 24 24" fill="none" xmlns="http://www.w3.org/2000/svg">
<path fill-rule="evenodd" clip-rule="evenodd" d="M7 3H21C21.2652 3 21.5196 3.10243 21.7071 3.28476C21.8946 3.46708 22 3.71437 22 3.97222V16.6111C22 17.6425 21.5786 18.6317 20.8284 19.361C20.0783 20.0903 19.0609 20.5 18 20.5H5C4.20435 20.5 3.44129 20.1927 2.87868 19.6457C2.31607 19.0987 2 18.3569 2 17.5833V7.86111C2 7.60326 2.10536 7.35597 2.29289 7.17365C2.48043 6.99132 2.73478 6.88889 3 6.88889H6V3.97222C6 3.71437 6.10536 3.46708 6.29289 3.28476C6.48043 3.10243 6.73478 3 7 3ZM5.70711 18.2708C5.89464 18.0885 6 17.8412 6 17.5833V8.83333H4V17.5833C4 17.8412 4.10536 18.0885 4.29289 18.2708C4.48043 18.4531 4.73478 18.5556 5 18.5556C5.26522 18.5556 5.51957 18.4531 5.70711 18.2708ZM16.4375 10.7778H17.4375C17.7027 10.7778 17.9571 10.8802 18.1446 11.0625C18.3321 11.2449 18.4375 11.4921 18.4375 11.75C18.4375 12.0078 18.3321 12.2551 18.1446 12.4375C17.9571 12.6198 17.7027 12.7222 17.4375 12.7222H16.4375C16.1723 12.7222 15.9179 12.6198 15.7304 12.4375C15.5429 12.2551 15.4375 12.0078 15.4375 11.75C15.4375 11.4921 15.5429 11.2449 15.7304 11.0625C15.9179 10.8802 16.1723 10.7778 16.4375 10.7778ZM16.4375 14.6667H17.4375C17.7027 14.6667 17.9571 14.7691 18.1446 14.9514C18.3321 15.1337 18.4375 15.381 18.4375 15.6389C18.4375 15.8967 18.3321 16.144 18.1446 16.3263C17.9571 16.5087 17.7027 16.6111 17.4375 16.6111H16.4375C16.1723 16.6111 15.9179 16.5087 15.7304 16.3263C15.5429 16.144 15.4375 15.8967 15.4375 15.6389C15.4375 15.381 15.5429 15.1337 15.7304 14.9514C15.9179 14.7691 16.1723 14.6667 16.4375 14.6667ZM17.4375 8.83333H11.4375C11.1723 8.83333 10.9179 8.7309 10.7304 8.54857C10.5429 8.36624 10.4375 8.11895 10.4375 7.8611C10.4375 7.60325 10.5429 7.35597 10.7304 7.17364C10.9179 6.99131 11.1723 6.88888 11.4375 6.88888H17.4375C17.7027 6.88888 17.9571 6.99131 18.1446 7.17364C18.3321 7.35597 18.4375 7.60325 18.4375 7.8611C18.4375 8.11895 18.3321 8.36624 18.1446 8.54857C17.9571 8.7309 17.7027 8.83333 17.4375 8.83333ZM12.4375 12.7222H11.4375C11.1723 12.7222 10.9179 12.6198 10.7304 12.4375C10.5429 12.2551 10.4375 12.0078 10.4375 11.75C10.4375 11.4921 10.5429 11.2449 10.7304 11.0625C10.9179 10.8802 11.1723 10.7778 11.4375 10.7778H12.4375C12.7027 10.7778 12.9571 10.8802 13.1446 11.0625C13.3321 11.2449 13.4375 11.4921 13.4375 11.75C13.4375 12.0078 13.3321 12.2551 13.1446 12.4375C12.9571 12.6198 12.7027 12.7222 12.4375 12.7222ZM12.4375 16.6111H11.4375C11.1723 16.6111 10.9179 16.5087 10.7304 16.3263C10.5429 16.144 10.4375 15.8967 10.4375 15.6389C10.4375 15.381 10.5429 15.1337 10.7304 14.9514C10.9179 14.7691 11.1723 14.6667 11.4375 14.6667H12.4375C12.7027 14.6667 12.9571 14.7691 13.1446 14.9514C13.3321 15.1337 13.4375 15.381 13.4375 15.6389C13.4375 15.8967 13.3321 16.144 13.1446 16.3263C12.9571 16.5087 12.7027 16.6111 12.4375 16.6111Z" fill="#4EB833"/>
</svg>
