<svg width="24" height="24" viewBox="0 0 24 24" fill="none" xmlns="http://www.w3.org/2000/svg">
<circle cx="12" cy="12" r="12" fill="#F0F0F0"/>
<path fill-rule="evenodd" clip-rule="evenodd" d="M16.7066 12.12L17.46 13.3734C17.7333 13.8334 17.7866 14.38 17.6 14.88C17.4133 15.3734 17.02 15.76 16.5066 15.9334C15.7866 16.1734 15.0466 16.36 14.3 16.48L14.2999 16.48C14.2266 16.4934 14.1533 16.5067 14.08 16.5134C13.96 16.5334 13.84 16.5467 13.72 16.56C13.5733 16.58 13.42 16.5934 13.2666 16.6067C12.8533 16.6467 12.4333 16.6667 12.0133 16.6667C11.5866 16.6667 11.16 16.6467 10.74 16.6067C10.56 16.5934 10.3866 16.5734 10.2133 16.5467L10.213 16.5467C10.1131 16.5333 10.0132 16.52 9.91997 16.5067C9.88331 16.5 9.84664 16.495 9.80997 16.49C9.77331 16.485 9.73664 16.48 9.69997 16.4734C8.95997 16.3467 8.23331 16.1734 7.51331 15.9334C6.97997 15.76 6.57331 15.3734 6.39331 14.8867C6.21331 14.4067 6.27997 13.8534 6.56664 13.3667L7.31997 12.1134C7.47997 11.84 7.62664 11.3134 7.62664 10.9934V9.75337C7.62664 7.33337 9.59331 5.37337 12.0133 5.3667C14.4266 5.3667 16.3933 7.33337 16.3933 9.75337V11C16.3933 11.32 16.54 11.8467 16.7066 12.12ZM11.9933 11.1734C12.2733 11.1734 12.5 10.9467 12.5 10.6667V8.60003C12.5 8.32003 12.2733 8.09337 11.9933 8.09337C11.7133 8.09337 11.4866 8.32003 11.4866 8.60003V10.6667C11.4866 10.9467 11.7133 11.1734 11.9933 11.1734ZM12 18.6667C12.8666 18.6667 13.6066 18.1134 13.8866 17.34C13.7733 17.3534 13.6666 17.3667 13.56 17.38C13.4699 17.3935 13.3769 17.401 13.2828 17.4085C13.2376 17.4121 13.1921 17.4157 13.1466 17.42C12.7733 17.4534 12.3933 17.4734 12.0133 17.4734C11.6266 17.4734 11.24 17.4534 10.86 17.42C10.7 17.4067 10.54 17.3867 10.3866 17.3667C10.3428 17.3604 10.3004 17.3556 10.2588 17.3509C10.2118 17.3456 10.1659 17.3404 10.12 17.3334C10.2133 17.6067 10.3733 17.8734 10.5866 18.0734C10.9533 18.4534 11.4733 18.6667 12 18.6667Z" fill="#86A1B8"/>
</svg>
