<svg width="24" height="24" viewBox="0 0 24 24" fill="none" xmlns="http://www.w3.org/2000/svg">
<path fill-rule="evenodd" clip-rule="evenodd" d="M19.06 12.18L20.19 14.06C20.6 14.75 20.68 15.57 20.4 16.32C20.12 17.06 19.53 17.64 18.76 17.9C17.68 18.26 16.57 18.54 15.45 18.72C15.34 18.74 15.23 18.76 15.12 18.7701C14.94 18.8 14.76 18.82 14.5801 18.84L14.58 18.84C14.36 18.87 14.13 18.89 13.9001 18.91L13.9 18.91C13.28 18.97 12.65 19 12.02 19C11.38 19 10.74 18.97 10.11 18.91C9.83996 18.89 9.57996 18.8601 9.31996 18.82L9.31934 18.82C9.16954 18.8 9.01977 18.78 8.87996 18.76C8.82496 18.75 8.76996 18.7425 8.71496 18.7351C8.65996 18.7276 8.60496 18.72 8.54996 18.71C7.43996 18.52 6.34996 18.26 5.26996 17.9C4.46996 17.64 3.85996 17.06 3.58996 16.33C3.31996 15.61 3.41996 14.78 3.84996 14.05L4.97996 12.17C5.21996 11.76 5.43996 10.97 5.43996 10.49V8.63005C5.43996 5.00005 8.38996 2.06005 12.02 2.05005C15.64 2.05005 18.59 5.00005 18.59 8.63005V10.5C18.59 10.98 18.81 11.77 19.06 12.18ZM11.99 10.76C12.41 10.76 12.75 10.42 12.75 10V6.90005C12.75 6.48005 12.41 6.14005 11.99 6.14005C11.57 6.14005 11.23 6.48005 11.23 6.90005V10C11.23 10.42 11.57 10.76 11.99 10.76ZM12 22C13.3 22 14.41 21.17 14.83 20.01C14.66 20.03 14.5 20.05 14.34 20.07C14.2049 20.0903 14.0653 20.1014 13.9242 20.1127C13.8563 20.1181 13.7882 20.1236 13.72 20.13C13.16 20.18 12.59 20.21 12.02 20.21C11.44 20.21 10.86 20.18 10.29 20.13C10.05 20.11 9.80996 20.08 9.57996 20.05C9.51416 20.0406 9.45056 20.0335 9.38813 20.0264C9.31775 20.0184 9.24886 20.0106 9.17996 20C9.31996 20.41 9.55996 20.81 9.87996 21.11C10.43 21.68 11.21 22 12 22Z" fill="#86A1B8"/>
</svg>
