<svg width="29" height="30" viewBox="0 0 29 30" fill="none" xmlns="http://www.w3.org/2000/svg">
<g filter="url(#filter0_d_0_264)">
<path fill-rule="evenodd" clip-rule="evenodd" d="M11.88 4.59997C11.08 1.13997 5.87002 1.12997 5.07002 4.59997C4.60002 6.62997 5.89003 8.34997 7.01003 9.41997C7.83003 10.19 9.12003 10.19 9.94003 9.41997C11.06 8.34997 12.34 6.62997 11.88 4.59997ZM8.51003 6.19997C7.96003 6.19997 7.51003 5.74997 7.51003 5.19997C7.51003 4.64997 7.95003 4.19997 8.50003 4.19997H8.51003C9.07003 4.19997 9.51003 4.64997 9.51003 5.19997C9.51003 5.74997 9.07003 6.19997 8.51003 6.19997ZM24.91 16.6C24.11 13.14 18.88 13.13 18.07 16.6C17.6 18.63 18.89 20.35 20.02 21.42C20.84 22.19 22.14 22.19 22.96 21.42C24.09 20.35 25.38 18.63 24.91 16.6ZM21.53 18.2C20.98 18.2 20.53 17.75 20.53 17.2C20.53 16.65 20.97 16.2 21.52 16.2H21.53C22.08 16.2 22.53 16.65 22.53 17.2C22.53 17.75 22.08 18.2 21.53 18.2ZM12.32 19.75H15C15.41 19.75 15.75 19.41 15.75 19C15.75 18.59 15.41 18.25 15 18.25H12.32C11.68 18.25 11.3 17.83 11.15 17.44C11.01 17.05 11.02 16.48 11.5 16.06L19.49 9.06997C20.36 8.29997 20.66 7.10997 20.25 6.02997C19.85 4.94997 18.84 4.24997 17.68 4.24997H15C14.59 4.24997 14.25 4.58997 14.25 4.99997C14.25 5.40997 14.59 5.74997 15 5.74997H17.68C18.32 5.74997 18.7 6.16997 18.85 6.55997C18.99 6.94997 18.98 7.51997 18.5 7.93997L10.51 14.93C9.63997 15.7 9.33997 16.89 9.74997 17.97C10.15 19.05 11.16 19.75 12.32 19.75Z" fill="#4EB833"/>
</g>
<defs>
<filter id="filter0_d_0_264" x="-1" y="0" width="32" height="32" filterUnits="userSpaceOnUse" color-interpolation-filters="sRGB">
<feFlood flood-opacity="0" result="BackgroundImageFix"/>
<feColorMatrix in="SourceAlpha" type="matrix" values="0 0 0 0 0 0 0 0 0 0 0 0 0 0 0 0 0 0 127 0" result="hardAlpha"/>
<feOffset dy="4"/>
<feGaussianBlur stdDeviation="2"/>
<feComposite in2="hardAlpha" operator="out"/>
<feColorMatrix type="matrix" values="0 0 0 0 0 0 0 0 0 0 0 0 0 0 0 0 0 0 0.25 0"/>
<feBlend mode="normal" in2="BackgroundImageFix" result="effect1_dropShadow_0_264"/>
<feBlend mode="normal" in="SourceGraphic" in2="effect1_dropShadow_0_264" result="shape"/>
</filter>
</defs>
</svg>
