<svg width="24" height="24" viewBox="0 0 24 24" fill="none" xmlns="http://www.w3.org/2000/svg">
<circle opacity="0.2" cx="12" cy="12" r="12" fill="#4EB833"/>
<path d="M14.6187 5.75H9.3875C7.10625 5.75 5.75 7.10625 5.75 9.38125V14.6125C5.75 16.8875 7.10625 18.2437 9.38125 18.2437H14.6125C16.8875 18.2437 18.2437 16.8875 18.2437 14.6125V9.38125C18.25 7.10625 16.8937 5.75 14.6187 5.75Z" fill="#4EB833"/>
<path fill-rule="evenodd" clip-rule="evenodd" d="M14.6562 5.75012V12.2625C14.6562 12.6625 14.5375 12.9625 14.3312 13.0812C14.1187 13.2062 13.7812 13.1438 13.4062 12.9188L12.5813 12.425C12.2625 12.2313 11.7375 12.2313 11.4187 12.425L10.5938 12.9188C10.2188 13.1438 9.88125 13.2 9.66875 13.0812C9.4625 12.9625 9.34375 12.6625 9.34375 12.2625V5.75017C9.3583 5.75006 9.37288 5.75 9.3875 5.75H14.6187C14.6313 5.75 14.6438 5.75004 14.6562 5.75012Z" fill="#ECDF60"/>
</svg>
