<svg width="24" height="24" viewBox="0 0 24 24" fill="none" xmlns="http://www.w3.org/2000/svg">
<path fill-rule="evenodd" clip-rule="evenodd" d="M20.02 11.01C20.02 15.9861 15.9861 20.02 11.01 20.02C6.03391 20.02 2 15.9861 2 11.01C2 6.03391 6.03391 2 11.01 2C15.9861 2 20.02 6.03391 20.02 11.01ZM20.02 18C20.96 18 21.66 18.34 21.99 18.95C22.31 19.56 22.21 20.33 21.68 21.1C21.02 22.09 20.34 22.28 19.9 22.28C19.83 22.28 19.77 22.28 19.71 22.27C19.3 22.22 18.55 21.93 18.12 20.63C17.9 19.96 17.98 19.29 18.34 18.79C18.7 18.29 19.31 18 20.02 18Z" fill="#B7BFC9"/>
</svg>
