<svg width="24" height="24" viewBox="0 0 24 24" fill="none" xmlns="http://www.w3.org/2000/svg">
<path fill-rule="evenodd" clip-rule="evenodd" d="M1.25 11.5C1.25 17.15 5.85 21.75 11.5 21.75C17.15 21.75 21.75 17.15 21.75 11.5C21.75 5.85 17.15 1.25 11.5 1.25C5.85 1.25 1.25 5.85 1.25 11.5ZM2.75 11.5C2.75 6.68 6.67 2.75 11.5 2.75C16.33 2.75 20.25 6.68 20.25 11.5C20.25 16.32 16.33 20.25 11.5 20.25C6.67 20.25 2.75 16.32 2.75 11.5ZM21.47 22.53C21.62 22.68 21.81 22.75 22 22.75C22.19 22.75 22.38 22.68 22.53 22.53C22.82 22.24 22.82 21.76 22.53 21.47L20.53 19.47C20.24 19.18 19.76 19.18 19.47 19.47C19.18 19.76 19.18 20.24 19.47 20.53L21.47 22.53Z" fill="#86A1B8"/>
</svg>
