<svg width="24" height="24" viewBox="0 0 24 24" fill="none" xmlns="http://www.w3.org/2000/svg">
<path fill-rule="evenodd" clip-rule="evenodd" d="M14.3331 4.31826V6.65681L13.2218 6.95498C12.1086 7.25365 9.67146 8.10959 7.52792 10.2111C5.86267 11.8437 4.30814 14.2907 3.73387 17.9891C6.63253 13.6055 10.747 12.5154 12.6259 12.2545L14.3322 12.0175V14.6831L20.1629 9.50029L14.3331 4.31826ZM12.8322 16.1668C12.8322 16.4951 13.0247 16.7926 13.3239 16.9268C13.4347 16.9768 13.5506 17.0001 13.6664 17.0001C13.8664 17.0001 14.0647 16.9276 14.2205 16.7893L21.7204 10.1228C21.8979 9.96528 21.9995 9.73779 21.9995 9.50029C21.9995 9.2628 21.8979 9.03531 21.7204 8.87781L14.2205 2.2113C13.9756 1.99297 13.6239 1.93797 13.3256 2.0738C13.0256 2.20797 12.8331 2.50546 12.8331 2.83378V5.50622C10.3298 6.17787 2 9.30447 2 21.1667C2 21.5658 2.28333 21.91 2.67582 21.985C2.72915 21.995 2.78165 22 2.83331 22C3.16831 22 3.4783 21.7975 3.60663 21.4758C5.57371 16.5578 9.02765 14.7381 11.3322 14.0647C11.9224 13.8923 12.4371 13.7951 12.8322 13.7402V16.1668Z" fill="#4EB833"/>
</svg>
