<svg width="24" height="24" viewBox="0 0 24 24" fill="none" xmlns="http://www.w3.org/2000/svg">
<circle opacity="0.2" cx="12" cy="12" r="12" fill="#86A1B8"/>
<path fill-rule="evenodd" clip-rule="evenodd" d="M12.5202 14.6043C12.5202 14.8095 12.6405 14.9954 12.8274 15.0792C12.8967 15.1105 12.9691 15.1251 13.0415 15.1251C13.1665 15.1251 13.2904 15.0798 13.3878 14.9933L18.0752 10.8267C18.1862 10.7283 18.2497 10.5861 18.2497 10.4377C18.2497 10.2892 18.1862 10.1471 18.0752 10.0486L13.3878 5.88206C13.2347 5.74561 13.0149 5.71123 12.8285 5.79613C12.641 5.87998 12.5207 6.06591 12.5207 6.27112V7.94139C10.9561 8.36117 5.75 10.3153 5.75 17.7292C5.75 17.9787 5.92708 18.1938 6.17239 18.2406C6.20572 18.2469 6.23853 18.25 6.27082 18.25C6.48019 18.25 6.67394 18.1234 6.75414 17.9224C7.98357 14.8486 10.1423 13.7113 11.5827 13.2905C11.9515 13.1827 12.2732 13.1219 12.5202 13.0876V14.6043Z" fill="#86A1B8"/>
</svg>
