<svg width="24" height="24" viewBox="0 0 24 24" fill="none" xmlns="http://www.w3.org/2000/svg">
<path fill-rule="evenodd" clip-rule="evenodd" d="M12 3.43005C15.56 3.43005 18.94 5.52005 21.25 9.15005C22.25 10.7201 22.25 13.2801 21.25 14.8401C20.09 16.6601 18.67 18.0901 17.09 19.0701C15.51 20.0401 13.78 20.5601 12 20.5601C8.44 20.5601 5.06 18.4801 2.75 14.8401C1.75 13.2701 1.75 10.7201 2.75 9.15005C3.91 7.33005 5.33 5.90005 6.91 4.92005C8.49 3.95005 10.22 3.43005 12 3.43005ZM7.96 12.0001C7.96 14.2301 9.76 16.0401 12 16.0401C14.24 16.0401 16.04 14.2301 16.04 12.0001C16.04 9.77005 14.24 7.96005 12 7.96005C9.76 7.96005 7.96 9.77005 7.96 12.0001ZM9.14999 12.0001C9.14999 10.4201 10.43 9.14005 12 9.14005C13.57 9.14005 14.86 10.4301 14.86 12.0001C14.86 13.5701 13.57 14.8501 12 14.8501C10.43 14.8501 9.14999 13.5701 9.14999 12.0001Z" fill="#86A1B8"/>
</svg>
