<svg width="24" height="24" viewBox="0 0 24 24" fill="none" xmlns="http://www.w3.org/2000/svg">
<path fill-rule="evenodd" clip-rule="evenodd" d="M14.5685 7.3846L12.1448 3.08462C12.0812 2.9718 11.9188 2.97179 11.8552 3.08462L9.43153 7.3846C9.1224 7.93304 8.58997 8.31987 7.97285 8.44439L3.13437 9.42065C3.00743 9.44626 2.95722 9.60078 3.04487 9.69612L6.38544 13.3299C6.81152 13.7934 7.01489 14.4193 6.94261 15.0447L6.37592 19.948C6.36105 20.0767 6.49248 20.1722 6.61025 20.1183L11.0985 18.0641C11.6709 17.8021 12.3291 17.8021 12.9015 18.0641L17.3898 20.1183C17.5075 20.1722 17.639 20.0767 17.6241 19.948L17.0574 15.0447C16.9851 14.4193 17.1885 13.7934 17.6146 13.3299L20.9551 9.69612C21.0428 9.60078 20.9926 9.44626 20.8656 9.42065L16.0272 8.44439C15.41 8.31987 14.8776 7.93304 14.5685 7.3846ZM13.016 2.5936C12.5699 1.80213 11.4301 1.80213 10.984 2.5936L8.56038 6.89358C8.39395 7.18885 8.10731 7.39711 7.77506 7.46414L2.93659 8.4404C2.04601 8.62009 1.69381 9.70406 2.30868 10.3729L5.64926 14.0067C5.87865 14.2562 5.98813 14.5932 5.94922 14.9299L5.38253 19.8332C5.27822 20.7358 6.2003 21.4057 7.02641 21.0276L11.5147 18.9734C11.8228 18.8324 12.1772 18.8324 12.4853 18.9734L16.9736 21.0276C17.7997 21.4057 18.7218 20.7358 18.6175 19.8332L18.0508 14.9299C18.0119 14.5932 18.1214 14.2562 18.3507 14.0067L21.6913 10.3729C22.3062 9.70406 21.954 8.62009 21.0634 8.4404L16.2249 7.46414C15.8927 7.39711 15.606 7.18885 15.4396 6.89358L13.016 2.5936Z" fill="#86A1B8"/>
<path fill-rule="evenodd" clip-rule="evenodd" d="M12 2C11.6035 2 11.2071 2.19787 10.984 2.5936L8.56038 6.89358C8.39395 7.18885 8.10731 7.39711 7.77506 7.46414L2.93659 8.4404C2.35253 8.55825 2.00003 9.06501 2 9.58855C2 9.58859 2 9.58864 2 9.58868C2.00002 9.8634 2.09709 10.1427 2.30868 10.3729L5.64926 14.0067C5.87865 14.2562 5.98813 14.5932 5.94922 14.9299L5.38253 19.8332C5.32296 20.3486 5.59811 20.7882 5.99896 21H7.08667L11.5147 18.9734C11.6687 18.9029 11.8344 18.8676 12 18.8676V2Z" fill="#FFBA00"/>
</svg>
