<svg width="24" height="24" viewBox="0 0 24 24" fill="none" xmlns="http://www.w3.org/2000/svg">
<path d="M4.16771 8.70005L8.69771 4.17005C9.64771 3.22005 10.9577 2.71005 12.2977 2.78005L17.2977 3.02005C19.2977 3.11005 20.8877 4.70005 20.9877 6.69005L21.2277 11.69C21.2877 13.03 20.7877 14.34 19.8377 15.29L15.3077 19.82C13.4477 21.68 10.4277 21.68 8.55771 19.82L4.16771 15.43C2.2977 13.58 2.2977 10.56 4.16771 8.70005ZM14.4977 12.38C16.0777 12.38 17.3777 11.09 17.3777 9.50005C17.3777 7.91005 16.0777 6.62005 14.4977 6.62005C12.9177 6.62005 11.6177 7.91005 11.6177 9.50005C11.6177 11.09 12.9177 12.38 14.4977 12.38ZM6.4677 13.53L10.4677 17.53C10.6177 17.68 10.8077 17.75 10.9977 17.75C11.1877 17.75 11.3777 17.68 11.5277 17.53C11.8177 17.24 11.8177 16.76 11.5277 16.47L7.52771 12.47C7.23771 12.18 6.7577 12.18 6.4677 12.47C6.1777 12.76 6.1777 13.24 6.4677 13.53Z" fill="#4EB833"/>
</svg>
