<svg width="24" height="24" viewBox="0 0 24 24" fill="none" xmlns="http://www.w3.org/2000/svg">
<path fill-rule="evenodd" clip-rule="evenodd" d="M1.25 12C1.25 17.93 6.07 22.75 12 22.75C17.93 22.75 22.75 17.93 22.75 12C22.75 6.07 17.93 1.25 12 1.25C6.07 1.25 1.25 6.07 1.25 12ZM2.75 12C2.75 6.9 6.9 2.75 12 2.75C17.1 2.75 21.25 6.9 21.25 12C21.25 17.1 17.1 21.25 12 21.25C6.9 21.25 2.75 17.1 2.75 12ZM15.33 15.82C15.45 15.9 15.58 15.93 15.71 15.93C15.96 15.93 16.21 15.8 16.36 15.56C16.57 15.2 16.46 14.74 16.1 14.53L13 12.68C12.69 12.5 12.39 11.97 12.39 11.61V7.50999C12.39 7.09999 12.05 6.75999 11.64 6.75999C11.23 6.75999 10.89 7.09999 10.89 7.50999V11.61C10.89 12.5 11.46 13.51 12.23 13.97L15.33 15.82Z" fill="#86A1B8"/>
</svg>
