<svg width="24" height="24" viewBox="0 0 24 24" fill="none" xmlns="http://www.w3.org/2000/svg">
<path fill-rule="evenodd" clip-rule="evenodd" d="M17.54 10.0999C17.69 10.2499 17.88 10.3199 18.07 10.3199C18.26 10.3199 18.46 10.2499 18.6 10.0999C18.89 9.80994 18.89 9.32994 18.6 9.03994L12.53 2.96994C12.24 2.67994 11.76 2.67994 11.47 2.96994L5.4 9.03994C5.11 9.32994 5.11 9.80994 5.4 10.0999C5.69 10.3899 6.17 10.3899 6.46 10.0999L11.25 5.30994V20.4999C11.25 20.9099 11.59 21.2499 12 21.2499C12.41 21.2499 12.75 20.9099 12.75 20.4999V5.30995L17.54 10.0999Z" fill="#4EB833"/>
</svg>
