<svg width="24" height="24" viewBox="0 0 24 24" fill="none" xmlns="http://www.w3.org/2000/svg">
<path fill-rule="evenodd" clip-rule="evenodd" d="M13.1901 3.48004C15.1801 1.49004 17.0801 1.54004 19.0201 3.48004C20.0201 4.47004 20.5001 5.43004 20.4901 6.42004C20.4901 7.38004 20.0101 8.33004 19.0201 9.31004L17.8201 10.52C17.7401 10.6 17.6401 10.64 17.5301 10.64C17.4901 10.64 17.4501 10.63 17.4101 10.62C14.7601 9.86004 12.6401 7.74004 11.8801 5.09004C11.8401 4.95004 11.8801 4.79004 11.9801 4.69004L13.1901 3.48004ZM14.7701 11.09C15.0401 11.25 15.3201 11.39 15.6101 11.53C15.649 11.5469 15.6874 11.5634 15.7254 11.5796C16.063 11.7237 16.1609 12.1692 15.9014 12.4287L10.1801 18.15C10.0601 18.28 9.81007 18.4 9.63007 18.43L5.79007 18.97C5.67007 18.99 5.55007 19 5.43007 19C4.89007 19 4.39007 18.81 4.03007 18.46C3.61007 18.03 3.42007 17.39 3.52007 16.71L4.06007 12.88C4.09007 12.71 4.21007 12.46 4.34007 12.33L10.0685 6.60156C10.3263 6.34381 10.7609 6.44125 10.9085 6.77457C10.9284 6.81947 10.9489 6.86464 10.9701 6.91003C11.1101 7.19003 11.2501 7.46003 11.4101 7.73003C11.5401 7.95003 11.6801 8.17003 11.8001 8.32003C11.9402 8.53482 12.0977 8.72344 12.1993 8.84518C12.2065 8.85381 12.2135 8.86209 12.2201 8.87003C12.2342 8.88823 12.2476 8.9056 12.2601 8.92191C12.3095 8.98629 12.3461 9.03408 12.3701 9.05003C12.7001 9.45003 13.0701 9.81003 13.4001 10.09C13.4801 10.17 13.5501 10.23 13.5701 10.24C13.7601 10.4 13.9601 10.56 14.1301 10.67C14.3401 10.82 14.5501 10.96 14.7701 11.09Z" fill="#5C1111"/>
<path d="M21 22H3C2.59 22 2.25 21.66 2.25 21.25C2.25 20.84 2.59 20.5 3 20.5H21C21.41 20.5 21.75 20.84 21.75 21.25C21.75 21.66 21.41 22 21 22Z" fill="#4EB833"/>
</svg>
