<svg width="24" height="24" viewBox="0 0 24 24" fill="none" xmlns="http://www.w3.org/2000/svg">
<mask id="mask0_0_460" style="mask-type:alpha" maskUnits="userSpaceOnUse" x="0" y="0" width="24" height="24">
<circle cx="12" cy="12" r="12" fill="#D9D9D9"/>
</mask>
<g mask="url(#mask0_0_460)">
<path d="M0 6C0 2.68629 2.68629 0 6 0H18C21.3137 0 24 2.68629 24 6V18C24 21.3137 21.3137 24 18 24H6C2.68629 24 0 21.3137 0 18V6Z" fill="#0180C7"/>
<path d="M24 12C24 18.6274 18.6274 24 12 24C5.37258 24 0 18.6274 0 12C0 5.37258 5.37258 0 12 0C18.6274 0 24 5.37258 24 12Z" fill="#0180C7"/>
<path d="M10 24C9.0318 23.7975 7.6373 23.224 6.77023 22.8035C6.62422 22.6554 6.47649 22.5098 6.32875 22.3658C6.09717 22.1412 5.86895 21.9121 5.64065 21.683C5.31115 21.3523 4.9815 21.0214 4.64136 20.7035C4.56277 20.6212 4.47983 20.5046 4.48444 20.4706C5.76125 20.7345 7.08983 20.656 8.31657 20.2602C8.73215 20.1283 9.14775 19.9963 9.56835 19.8855C9.85375 19.8063 10.1542 19.8222 10.4296 19.9277C13.6041 21.0782 16.7385 20.9726 19.8229 19.5477C20.8022 19.0913 23.6853 15.7298 24.5 15C26.5 19 25.5 24.5 17 25L10 24Z" fill="#0172B1"/>
<path d="M11.9882 11.4682C11.851 11.2835 11.7771 11.0618 11.7665 10.8296C11.7613 10.0855 12.1676 9.63694 12.7481 9.67388C12.9961 9.67916 13.2284 9.80054 13.3761 10.0064C13.6716 10.4074 13.6716 11.0671 13.3761 11.4682C13.3233 11.5368 13.2653 11.5948 13.202 11.6423C12.8167 11.9273 12.2732 11.8481 11.9882 11.4682Z" fill="white"/>
<path d="M18.8434 11.4734C18.6851 11.2571 18.6059 10.9985 18.6165 10.7346C18.6165 10.075 19.0176 9.64222 19.5875 9.67388C19.8356 9.67916 20.0678 9.80582 20.2155 10.0064C20.5163 10.4074 20.5163 11.0829 20.2102 11.484C20.1627 11.5368 20.1152 11.5895 20.0572 11.6318C19.6772 11.9273 19.1337 11.8534 18.8434 11.4734Z" fill="white"/>
<path fill-rule="evenodd" clip-rule="evenodd" d="M22.5251 17.7685C24.5 15.9999 25.5 13.5908 25.5 11.4999C25.5 4.87252 26.0355 -1.5 19.4081 -1.5C18.3222 -1.5 12.0004 -1.27037 11 -1.00001C10.8231 -0.883844 8.48069 0.66681 8.47131 0.673097C7.4799 1.28526 6.57362 2.01881 5.81254 2.92651C4.55576 4.42526 3.68452 6.14566 3.3891 8.14576C2.86837 11.6763 3.91485 14.6738 6.28321 17.1752C6.7038 17.6238 6.75888 17.9721 6.42341 18.5737C6.01783 19.2967 5.40196 19.7875 4.74603 20.2361C4.69932 20.2642 4.65251 20.2971 4.6058 20.3299C4.58249 20.3463 4.55904 20.3628 4.53573 20.3785C4.43058 20.4735 4.49567 20.521 4.5858 20.5633C5.86261 20.8271 7.10938 20.6424 8.33612 20.2466C8.75166 20.1147 9.16734 19.9827 9.58789 19.8719C9.8733 19.7928 10.1737 19.8086 10.4491 19.9141C13.6236 21.0646 16.7581 20.959 19.8424 19.5342C20.8122 19.0822 21.7164 18.4887 22.5251 17.7685ZM14.1097 8.54454C13.8933 8.58676 13.7614 8.7398 13.6347 8.9034C12.975 8.32817 12.2468 8.29123 11.5291 8.71869C10.6636 9.22531 10.3417 10.0486 10.4525 11.0143C10.558 11.9062 10.9433 12.6397 11.8826 12.9458C12.4684 13.1358 13.012 13.0672 13.4922 12.6767C13.6189 12.5764 13.6558 12.5975 13.7455 12.7083C13.9197 12.9353 14.2205 13.0144 14.4844 12.9142C14.7429 12.835 14.9224 12.5922 14.9224 12.3178C14.9329 11.2624 14.9382 10.2069 14.9224 9.15143C14.9171 8.72925 14.5266 8.4601 14.1097 8.54454ZM19.4081 8.45483C18.1415 8.49177 17.2497 9.50501 17.2919 10.8613C17.2708 12.1806 18.3632 13.178 19.7406 13.0408C21.0018 12.9142 21.8198 11.9695 21.7776 10.6344C21.7354 9.31503 20.7538 8.41261 19.4081 8.45483ZM16.8287 10.6291C16.8281 10.3564 16.8275 10.0838 16.8275 9.81109C16.8275 9.53706 16.8281 9.26178 16.8287 8.98697C16.8298 8.43643 16.831 7.88502 16.8275 7.33604C16.8275 6.91385 16.5583 6.64999 16.1573 6.65526C15.7667 6.65526 15.5082 6.91913 15.5029 7.32548C15.4994 7.4906 15.5005 7.65359 15.5017 7.81715C15.5023 7.89917 15.5029 7.9815 15.5029 8.06431V12.2598C15.5029 12.5922 15.7034 12.8719 15.9673 12.9405C16.0306 12.9564 16.0992 12.9616 16.1625 12.9616C16.5372 12.9511 16.8328 12.6397 16.8275 12.265C16.831 11.7197 16.8298 11.1744 16.8287 10.6291ZM8.30672 11.6781C8.0465 11.6787 7.78248 11.6793 7.51304 11.6793C7.59748 11.5632 7.65025 11.4946 7.7083 11.4259C8.39963 10.5552 9.09096 9.67916 9.78229 8.79785C9.98282 8.53927 10.1834 8.28068 10.31 7.97987C10.4525 7.63157 10.2995 7.2991 9.94061 7.17773C9.77701 7.13551 9.61341 7.1144 9.44454 7.11968C8.50517 7.1144 7.56053 7.1144 6.62117 7.11968C6.48924 7.11968 6.35731 7.13551 6.23065 7.16717C6.03011 7.21467 5.87179 7.37826 5.8243 7.5788C5.75569 7.87433 5.9404 8.17513 6.2412 8.24374C6.36786 8.27013 6.49979 8.28596 6.63173 8.28596C6.9167 8.2886 7.203 8.2886 7.48929 8.2886C7.77558 8.2886 8.06188 8.2886 8.34685 8.29123C8.36353 8.29262 8.38094 8.29072 8.3985 8.2888C8.44763 8.28343 8.49796 8.27792 8.53684 8.34401C8.48936 8.40203 8.44186 8.46537 8.39438 8.52867C7.5764 9.56301 6.75838 10.6027 5.94568 11.637C5.74514 11.8956 5.63959 12.1806 5.78735 12.4972C5.93512 12.8139 6.23593 12.8772 6.54201 12.893C6.71899 12.9043 6.89329 12.9022 7.06873 12.9C7.13916 12.8992 7.20978 12.8983 7.28084 12.8983C7.49428 12.8983 7.7074 12.8986 7.92035 12.899L7.92178 12.899C8.56127 12.9 9.19936 12.9009 9.84033 12.893C10.2942 12.8878 10.5369 12.6081 10.4894 12.1912C10.4472 11.8587 10.2203 11.6845 9.80339 11.6793C9.31089 11.6758 8.81608 11.6769 8.30672 11.6781Z" fill="white"/>
<path d="M0.481835 15.3775L0.482205 14.7639C0.483448 12.7142 0.484691 10.6643 0.484384 8.61381C0.482953 8.61868 0.481459 8.62378 0.480034 8.62866L0.47998 15.3711" fill="white"/>
</g>
</svg>
